<svg version="1.1" id="Layer_1" xmlns="http://www.w3.org/2000/svg" xmlns:xlink="http://www.w3.org/1999/xlink" x="0px" y="0px"
	 width="100%" viewBox="0 0 1024 1024" enable-background="new 0 0 1024 1024" xml:space="preserve">
<path fill="#000000" opacity="1.000000" stroke="none" 
	d="
M537.094971,287.678162 
	C596.414917,300.950439 635.416443,335.888123 649.358276,394.985046 
	C660.311523,441.413971 647.975708,483.314453 616.928528,519.546814 
	C615.380981,521.352783 613.729980,525.097900 610.818848,523.191040 
	C608.370850,521.587585 610.929993,518.627747 611.663513,516.428772 
	C614.375916,508.297089 614.860962,500.053589 612.678650,491.829437 
	C609.778259,480.899109 606.680359,470.009918 603.263184,459.231140 
	C599.853455,448.476074 593.325867,445.348541 582.549438,448.863556 
	C580.830200,449.424377 579.814453,449.128540 578.626953,447.875549 
	C573.355042,442.312927 567.203613,441.521820 560.464600,444.899689 
	C559.004517,445.631531 557.872498,445.996552 556.396118,444.834198 
	C554.063538,442.997772 551.536804,441.407990 549.192993,439.783661 
	C548.773438,437.705963 550.139954,436.480438 550.922974,435.086060 
	C568.139160,404.427551 547.319214,368.820557 512.311218,368.012146 
	C489.550385,367.486603 466.400299,386.927094 467.280640,413.929016 
	C467.956512,434.661591 484.405945,453.468353 505.483215,456.530975 
	C509.634247,457.134125 511.663605,458.668610 512.462463,462.692230 
	C513.237488,466.596008 514.561890,470.389374 515.583496,474.247528 
	C515.689270,474.647186 515.376587,475.157623 515.201477,475.835785 
	C511.363556,475.010529 508.314972,472.417572 504.491302,471.783539 
	C501.609680,471.305725 498.892456,471.274689 496.148132,472.263336 
	C487.647400,475.325714 485.637665,483.374695 491.936066,490.088135 
	C500.028107,498.713470 508.352966,507.120056 516.524475,515.671509 
	C518.097229,517.317322 520.039307,518.747925 520.657959,521.130737 
	C510.518951,527.235901 478.763306,520.309631 458.639923,506.819489 
	C434.729614,490.790649 420.670105,468.424561 416.990845,439.014618 
	C421.850342,438.758087 425.932281,438.542603 431.362183,438.255951 
	C423.445496,428.427582 416.157684,419.380005 408.373871,409.716583 
	C400.756195,419.353455 393.685608,428.298248 386.453247,437.447693 
	C389.282104,438.933807 391.893066,438.390717 394.442139,438.120026 
	C398.440704,437.695404 400.634857,439.104767 401.127350,443.384766 
	C403.771820,466.365265 413.685913,486.089386 429.190796,502.905457 
	C448.716888,524.082825 473.041718,535.918579 501.788788,538.891235 
	C512.698303,540.019348 523.379639,539.129272 534.051758,537.231262 
	C536.197388,536.849670 537.911743,536.998169 539.659424,538.292664 
	C540.990234,539.278381 542.416016,540.397095 543.966736,540.781006 
	C552.166748,542.811096 552.807983,548.739319 552.414185,555.712646 
	C552.226868,559.029663 550.989380,560.418457 547.965942,561.162231 
	C522.152710,567.511902 496.421356,567.370544 471.111786,559.140076 
	C420.973236,542.835266 387.952667,509.397217 375.554565,457.997314 
	C359.401794,391.031403 392.253418,325.650177 454.634888,297.663208 
	C480.879700,285.888672 508.333984,282.920502 537.094971,287.678162 
M568.622009,326.944489 
	C520.831909,298.503693 464.171204,312.665375 436.986115,341.063324 
	C439.063141,343.404205 441.402161,345.582947 443.180603,348.150085 
	C445.958618,352.160095 448.426025,351.943756 452.114410,349.046997 
	C487.248718,321.453613 535.120422,321.130035 570.647644,348.215240 
	C589.887451,362.883301 601.526794,382.349884 606.164795,406.022217 
	C607.312012,411.877563 606.913208,412.147675 601.409729,412.269135 
	C598.892212,412.324707 596.201599,411.569916 593.367920,413.471161 
	C600.807800,422.567749 608.028931,431.396759 615.825989,440.930023 
	C623.557068,431.335388 630.851196,422.283081 638.967957,412.209869 
	C635.151489,412.209869 632.824768,411.979187 630.560486,412.257111 
	C625.588562,412.867401 623.620300,410.858459 622.824341,405.855713 
	C617.328064,371.310852 598.976257,345.397675 568.622009,326.944489 
z"/>
<path fill="#000000" opacity="1.000000" stroke="none" 
	d="
M578.929932,462.147034 
	C579.675415,464.814301 579.620239,467.525726 582.566101,468.544342 
	C584.700623,466.617493 583.351929,464.744781 582.803772,462.959137 
	C581.197083,457.725220 582.233276,454.582397 586.193604,452.953857 
	C590.527710,451.171570 595.317078,453.100006 597.264771,457.797729 
	C598.596313,461.009186 599.378174,464.449768 600.386108,467.793854 
	C602.642639,475.280823 604.834412,482.787750 607.145569,490.257690 
	C615.259216,516.481262 597.607239,536.034607 575.008545,540.304565 
	C559.575378,543.220581 546.081909,539.112549 535.158020,528.156555 
	C521.636169,514.594849 508.733826,500.415161 495.579803,486.487427 
	C494.050964,484.868683 492.690033,483.027771 493.737671,480.681763 
	C494.855804,478.177887 497.140198,477.049530 499.743988,476.804688 
	C505.266541,476.285431 509.640961,479.019440 513.963135,481.966827 
	C517.871948,484.632324 520.686951,488.721069 525.960144,491.266571 
	C522.438843,478.947571 519.149841,467.488129 515.888977,456.020630 
	C512.247986,443.216370 508.597748,430.414490 505.041473,417.586670 
	C504.471771,415.531647 503.639801,413.413269 504.133118,411.218048 
	C505.061462,407.087250 507.490387,404.225006 511.842590,403.827179 
	C516.633972,403.389221 519.848755,405.844818 521.226807,410.373383 
	C524.036621,419.606689 526.743591,428.872498 529.380615,438.156830 
	C531.471130,445.516846 533.325623,452.943970 535.431519,460.299347 
	C536.097229,462.624298 536.333618,465.223999 538.327698,467.026398 
	C540.793823,466.460419 540.508850,464.918884 539.979431,463.170441 
	C539.256836,460.783752 538.532715,458.387207 538.013977,455.951263 
	C536.971863,451.057892 538.925293,447.195648 542.990356,445.803223 
	C547.630249,444.213837 552.237610,445.972321 554.203003,450.589844 
	C555.625244,453.931244 556.286865,457.588745 557.466492,461.044250 
	C558.054260,462.766235 557.976196,465.165100 560.934570,465.468781 
	C562.505554,463.098328 560.829163,460.998016 560.309875,458.921082 
	C558.980957,453.605560 560.447266,450.090637 564.966248,448.349976 
	C569.335876,446.666870 574.046265,448.573212 576.104858,453.223877 
	C577.307068,455.939972 577.929932,458.912506 578.929932,462.147034 
z"/>
<path fill="#000000" opacity="1.000000" stroke="none" 
	d="
M478.548157,695.249146 
	C478.263306,706.305603 478.263306,706.305603 467.357574,706.289978 
	C459.843933,706.279236 459.912964,706.172424 460.280273,698.774170 
	C460.565308,693.032837 460.337219,687.265930 460.337219,680.597778 
	C452.574585,686.974976 444.502228,689.427185 435.311127,686.667664 
	C428.869537,684.733704 423.611725,681.265991 419.840271,675.571472 
	C411.231720,662.573608 413.071472,642.799805 423.909454,632.782654 
	C434.032288,623.426514 447.615814,623.378845 460.217133,633.020691 
	C459.628418,626.625671 463.565155,626.687073 468.030426,626.763611 
	C480.323944,626.974487 478.947968,625.964539 478.908081,637.901123 
	C478.844666,656.872009 478.702637,675.842590 478.548157,695.249146 
M433.663116,663.599243 
	C437.964874,671.138428 444.357880,673.890747 451.587646,671.316345 
	C457.933807,669.056580 461.760254,661.733826 460.567535,654.131287 
	C459.476074,647.174133 454.205353,641.924133 447.763580,641.377747 
	C440.507599,640.762329 435.342468,644.566284 433.010803,652.084839 
	C431.871338,655.759094 432.281647,659.304382 433.663116,663.599243 
z"/>
<path fill="#000000" opacity="1.000000" stroke="none" 
	d="
M524.845947,686.363342 
	C516.043701,686.363831 507.719910,686.250122 499.400635,686.395264 
	C495.961639,686.455261 494.681091,685.165588 494.692535,681.732422 
	C494.764099,660.261841 494.710693,638.790833 494.690186,617.320007 
	C494.687988,615.035461 494.754333,612.718201 497.898315,612.833008 
	C510.313629,613.286133 522.823853,611.275757 535.126770,614.725281 
	C553.389282,619.845703 562.973511,633.193787 562.333984,653.082825 
	C561.819824,669.072449 549.988586,681.988953 532.714661,685.342468 
	C530.278259,685.815430 527.790344,686.023071 524.845947,686.363342 
M519.033630,673.563538 
	C522.549866,673.879456 525.992493,673.385193 529.420898,672.659363 
	C540.965759,670.214844 548.093384,661.013123 547.813721,648.887085 
	C547.550964,637.492981 539.523560,628.289734 528.292175,626.290405 
	C523.643005,625.462769 518.997131,626.241638 514.369019,625.925659 
	C510.470306,625.659363 509.064758,627.231018 509.123779,631.118225 
	C509.290497,642.089905 509.178589,653.065796 509.183899,664.039978 
	C509.188263,673.062195 509.192963,673.062195 519.033630,673.563538 
z"/>
<path fill="#000000" opacity="1.000000" stroke="none" 
	d="
M347.490967,671.264648 
	C339.440643,652.941101 346.924255,633.718628 364.150116,627.658081 
	C382.870514,621.071716 402.710663,630.361389 407.660461,648.030823 
	C411.642975,662.247253 405.474274,676.992126 392.712341,683.760437 
	C379.043213,691.010010 360.490570,687.782959 351.136810,676.480042 
	C349.868469,674.947449 348.826935,673.227112 347.490967,671.264648 
M362.249573,657.376404 
	C363.031189,667.176453 370.293274,673.865051 378.377136,672.230408 
	C385.947754,670.699524 391.326416,663.464966 390.622040,655.760437 
	C389.859741,647.422607 383.676575,641.237915 376.187042,641.321960 
	C368.286713,641.410645 362.863586,647.331116 362.249573,657.376404 
z"/>
<path fill="#000000" opacity="1.000000" stroke="none" 
	d="
M484.342377,414.653625 
	C485.915985,426.298370 491.962372,433.953766 502.482239,438.175507 
	C508.526276,440.600983 507.011139,446.594543 509.457214,451.928833 
	C496.918823,450.791870 487.634613,445.832611 480.900879,436.796814 
	C471.374542,424.013794 469.533966,409.910980 476.435608,395.382660 
	C483.193542,381.156830 495.335846,374.197723 510.641449,372.922607 
	C525.578918,371.678131 541.746582,381.837494 548.129456,395.767242 
	C554.782288,410.285889 552.137024,428.082489 541.688965,439.097778 
	C537.360474,443.661285 536.506470,443.314789 534.331421,437.447876 
	C532.857788,433.472992 533.336670,430.514954 535.743042,426.914886 
	C542.060669,417.463318 540.963867,404.474670 533.729980,395.148621 
	C526.954468,386.413544 515.210876,382.873718 504.047607,386.201508 
	C493.079041,389.471283 485.063263,399.431641 484.338409,410.726929 
	C484.263916,411.887817 484.330414,413.057800 484.342377,414.653625 
z"/>
<path fill="#000000" opacity="1.000000" stroke="none" 
	d="
M716.301758,652.051331 
	C722.204895,663.777588 730.331604,673.772644 736.761780,684.853577 
	C729.350098,688.502991 721.843445,686.673828 717.786560,680.500916 
	C713.874573,674.548279 709.895813,668.639587 705.939636,662.701538 
	C698.941711,666.887390 696.244690,672.519470 697.212097,680.111511 
	C697.459351,682.051697 698.282593,685.050720 695.633118,685.824524 
	C692.155396,686.840271 688.357178,686.905518 684.841492,685.669006 
	C683.479431,685.189941 683.719482,683.378174 683.718323,682.066101 
	C683.698303,659.074402 683.735535,636.082520 683.652893,613.091064 
	C683.640991,609.780273 685.086060,608.580566 688.173645,608.758423 
	C689.335999,608.825378 690.520508,608.888428 691.669067,608.745361 
	C696.046509,608.200073 697.508423,610.034668 697.393372,614.424500 
	C697.127258,624.580566 697.290894,634.748413 697.329224,644.911316 
	C697.335388,646.539673 696.966125,648.238647 697.883484,649.876953 
	C699.961914,650.510498 700.774109,648.691040 701.855103,647.634949 
	C706.144653,643.443848 710.913940,639.581970 714.444763,634.812866 
	C720.184021,627.060974 727.662415,629.065186 736.338928,629.265808 
	C730.042725,638.139282 721.616638,643.581177 716.301758,652.051331 
z"/>
<path fill="#000000" opacity="1.000000" stroke="none" 
	d="
M571.127502,648.529968 
	C576.591858,632.780396 589.866882,625.096558 604.783936,628.784851 
	C620.129700,632.579285 625.468140,648.624817 624.177063,660.317810 
	C623.840759,663.363770 621.460571,663.237427 619.281616,663.234619 
	C609.634033,663.222351 599.986328,663.138000 590.338989,663.174561 
	C588.624023,663.181091 586.354370,662.474609 585.499939,664.675842 
	C584.751648,666.603638 586.217773,668.155090 587.355103,669.571289 
	C592.479614,675.952393 602.115662,676.688416 609.969604,671.417053 
	C611.385681,670.466736 612.605652,668.094788 614.591553,669.380737 
	C617.211975,671.077332 619.777100,673.182251 621.097412,676.088562 
	C621.933655,677.929382 619.838196,678.971985 618.681274,680.038208 
	C609.626770,688.382629 595.036133,689.848022 583.770569,683.614441 
	C573.740173,678.064331 567.900330,665.191467 570.038757,653.301453 
	C570.303345,651.830261 570.671631,650.377747 571.127502,648.529968 
M585.327881,648.652893 
	C584.216797,651.481812 585.286011,652.710999 588.215515,652.697327 
	C594.030884,652.670166 599.848206,652.774719 605.661621,652.664856 
	C609.965149,652.583618 610.918701,650.808044 608.679993,646.978882 
	C606.284363,642.881470 602.909912,640.205322 597.836548,640.224060 
	C592.082886,640.245239 588.025452,642.811768 585.327881,648.652893 
z"/>
<path fill="#000000" opacity="1.000000" stroke="none" 
	d="
M302.843262,642.240845 
	C296.931854,639.444275 300.572449,634.547485 299.832092,630.700073 
	C299.294434,627.905945 301.755280,627.750366 303.832184,627.624939 
	C306.655304,627.454529 306.628418,625.370056 306.746490,623.297607 
	C307.417450,611.522156 307.432434,611.679504 319.064850,611.656250 
	C323.219818,611.647949 324.938782,613.053711 324.374268,617.158264 
	C324.306885,617.648254 324.364532,618.155640 324.365692,618.654968 
	C324.386841,627.597351 324.399109,627.908630 333.209076,627.563232 
	C338.577454,627.352783 339.206207,629.984558 339.114258,634.243896 
	C338.949463,641.880310 338.865997,642.160278 333.024933,642.250488 
	C324.947998,642.375244 324.945892,642.375244 324.927979,650.512634 
	C324.917694,655.172913 324.817841,659.835693 324.933594,664.492920 
	C325.092926,670.904663 327.876465,673.206604 333.801025,671.127686 
	C338.468292,669.489990 339.273468,671.152161 339.272614,675.306335 
	C339.270782,684.251465 337.084106,686.766174 328.174591,687.321777 
	C314.019104,688.204468 306.971222,681.697876 306.786621,667.458435 
	C306.696014,660.468994 306.738281,653.477173 306.783539,646.486877 
	C306.799530,644.019531 306.288666,642.146545 302.843262,642.240845 
z"/>
<path fill="#000000" opacity="1.000000" stroke="none" 
	d="
M649.637817,640.327515 
	C647.173462,640.902100 645.422546,641.788757 645.308838,644.235229 
	C645.184998,646.899597 647.102661,648.026184 649.156555,648.866333 
	C654.386597,651.005798 659.674255,653.004395 664.899719,655.154602 
	C671.468506,657.857422 674.054626,663.369690 673.930786,669.908020 
	C673.807190,676.432373 670.777954,681.687561 664.654114,684.792053 
	C654.112488,690.136169 639.806030,686.506165 631.378540,680.956238 
	C629.599182,679.784363 629.260010,678.318665 630.255859,676.245972 
	C633.597046,669.292175 634.427979,668.940125 641.177368,672.421021 
	C645.236450,674.514404 649.510620,675.888489 654.111633,675.438843 
	C656.823486,675.173828 659.668579,674.240417 660.192139,671.159607 
	C660.687378,668.245056 658.288147,666.605774 655.972107,665.638489 
	C651.376465,663.719055 646.580811,662.278320 641.984802,660.359558 
	C633.711792,656.905945 630.542175,651.069519 631.757874,642.074036 
	C632.668213,635.338196 638.389832,630.034424 646.025757,628.685120 
	C654.221436,627.236938 661.845642,628.924255 669.232971,632.468445 
	C672.284912,633.932617 673.270630,635.848572 671.260071,638.737854 
	C669.512024,641.250000 669.384033,646.178528 663.977844,643.342468 
	C659.679871,641.087830 655.041260,639.684631 649.637817,640.327515 
z"/>
<path fill="#000000" opacity="1.000000" stroke="none" 
	d="
M536.273560,414.778503 
	C535.780945,418.851746 535.022705,422.371521 532.441040,425.529205 
	C529.650513,423.569672 529.764038,420.537445 528.944458,418.013245 
	C527.817383,414.541718 527.161682,410.905457 525.885437,407.496460 
	C523.149231,400.187408 515.555176,396.499146 508.527069,398.804474 
	C501.601349,401.076202 497.222931,408.697571 498.959534,415.834625 
	C500.371429,421.637085 502.062988,427.371368 503.593842,433.145599 
	C503.655518,433.378357 503.341125,433.710785 503.204498,433.991608 
	C495.347046,432.873657 488.337555,423.805939 487.723389,413.986176 
	C486.882141,400.535706 497.257568,389.119385 511.291046,388.054138 
	C523.808655,387.103943 535.411194,397.681183 536.262878,410.839569 
	C536.338013,411.999756 536.282349,413.168457 536.273560,414.778503 
z"/>
<path fill="#000000" opacity="1.000000" stroke="none" 
	d="
M491.223999,611.157532 
	C490.540955,618.250916 486.881805,622.600769 480.904419,623.866516 
	C476.413666,624.817444 471.537720,622.540955 469.061829,618.356140 
	C466.179504,613.484436 466.880585,608.721191 469.921478,604.332397 
	C472.523865,600.576355 476.523407,599.337524 480.901550,600.136230 
	C486.735809,601.200500 490.299377,604.748474 491.223999,611.157532 
z"/>
<path fill="#000000" opacity="1.000000" stroke="none" 
	d="
M719.586365,719.039673 
	C714.791382,721.732117 715.645447,726.107727 715.320923,730.207764 
	C715.138306,732.516052 716.950684,736.655823 713.035217,736.615845 
	C709.242065,736.577026 711.091125,732.470703 710.752747,730.117310 
	C710.471558,728.161987 710.727539,726.135071 710.646362,724.143921 
	C710.532166,721.344666 709.175964,719.110962 706.391113,718.778625 
	C703.565552,718.441528 701.881104,720.487671 701.010376,723.059753 
	C699.915222,726.294922 700.615173,729.660522 700.362305,732.957947 
	C700.239807,734.555603 700.593506,736.682190 698.261841,736.818481 
	C695.515564,736.978943 695.770630,734.657532 695.745178,732.892273 
	C695.673462,727.908020 695.691040,722.922180 695.714905,717.937134 
	C695.721191,716.619873 695.779785,714.514038 697.282104,714.761719 
	C702.087646,715.553955 707.057617,711.715576 711.650879,715.267517 
	C713.579773,716.759094 715.070862,716.222412 717.041687,715.181702 
	C723.854675,711.583801 729.912170,715.105042 730.275269,722.785706 
	C730.455566,726.599060 730.353333,730.427795 730.307922,734.248718 
	C730.290771,735.683289 729.793274,736.911804 728.040527,736.906555 
	C726.285950,736.901367 725.817505,735.659119 725.780334,734.231506 
	C725.697998,731.076050 725.778381,727.915405 725.655396,724.762207 
	C725.513916,721.135925 724.043701,718.680908 719.586365,719.039673 
z"/>
<path fill="#000000" opacity="1.000000" stroke="none" 
	d="
M461.632385,714.295288 
	C464.043610,714.861572 466.092407,714.410278 468.115753,714.424866 
	C474.693939,714.472717 481.192413,714.970276 487.847961,714.305542 
	C491.760773,713.914734 493.816315,718.189087 494.144592,722.110168 
	C494.477081,726.081360 494.338470,730.093262 494.371674,734.087585 
	C494.383179,735.472534 494.225739,736.840027 492.415924,737.009094 
	C490.441803,737.193420 489.722046,735.993347 489.689331,734.277710 
	C489.632172,731.283020 489.690308,728.286194 489.654877,725.290833 
	C489.615967,722.001648 488.536896,718.874023 484.957123,718.710144 
	C481.124756,718.534851 479.732056,721.767456 479.391083,725.128906 
	C479.140167,727.602173 479.384399,730.121643 479.259460,732.613098 
	C479.174377,734.310059 479.831085,736.753052 477.122833,736.871277 
	C474.380646,736.990967 474.787476,734.570068 474.717682,732.834167 
	C474.610748,730.174622 474.697113,727.507935 474.650360,724.845215 
	C474.595459,721.719116 473.479797,718.860107 470.104523,718.716309 
	C466.564880,718.565552 464.868835,721.439880 464.490967,724.626587 
	C464.120544,727.750549 464.338501,730.941833 464.243591,734.101990 
	C464.200653,735.532166 463.762085,736.772400 462.020142,736.837708 
	C460.578094,736.891785 459.798828,735.986450 459.787231,734.696777 
	C459.728973,728.229248 459.106873,721.746643 460.152069,715.305786 
	C460.210602,714.945007 460.877136,714.682861 461.632385,714.295288 
z"/>
<path fill="#000000" opacity="1.000000" stroke="none" 
	d="
M349.023438,727.781738 
	C342.992950,725.184082 341.662354,726.026428 341.332794,731.984863 
	C341.233032,733.788391 342.176270,736.637695 339.217041,736.721436 
	C336.320068,736.803406 336.835999,734.005249 336.811981,732.140747 
	C336.721924,725.148132 336.795135,718.153564 336.746094,711.160156 
	C336.728546,708.657288 337.410187,706.877441 340.316284,706.901489 
	C344.635315,706.937256 348.975128,706.532593 353.239838,707.630005 
	C360.259460,709.436218 363.258911,717.981079 357.961853,722.834595 
	C354.249023,726.236450 354.920868,728.317017 357.724121,731.295166 
	C358.937775,732.584534 359.811951,734.193420 361.090363,736.013000 
	C358.304108,737.674988 356.364166,737.357544 354.701294,735.218567 
	C352.862457,732.853271 351.086334,730.439209 349.023438,727.781738 
M351.574646,721.545654 
	C354.154846,720.552979 355.898651,718.825989 355.396820,715.919250 
	C354.948730,713.323853 352.819122,712.145386 350.443298,711.592712 
	C349.330902,711.333862 348.126465,711.500366 346.973511,711.380493 
	C343.107697,710.978455 341.279999,712.180481 341.247803,716.573364 
	C341.216248,720.881653 342.793579,722.287170 346.778870,721.834473 
	C348.095337,721.684998 349.432495,721.717529 351.574646,721.545654 
z"/>
<path fill="#000000" opacity="1.000000" stroke="none" 
	d="
M430.785767,725.261475 
	C427.191101,734.786743 415.524170,740.221680 406.478119,737.005554 
	C404.618195,736.344238 404.529663,735.030090 404.537140,733.460022 
	C404.573608,725.804626 404.597290,718.149048 404.579163,710.493652 
	C404.574829,708.659546 404.824158,707.053894 407.085052,706.975098 
	C412.064056,706.801636 417.083160,706.343689 421.864014,708.335632 
	C428.602264,711.142883 431.711731,716.840210 430.785767,725.261475 
M416.697266,732.486145 
	C424.296875,729.768555 427.062805,725.682251 425.655975,719.250793 
	C424.546021,714.176575 418.875336,710.841309 412.764587,711.422791 
	C410.279053,711.659302 409.191589,712.648560 409.255493,715.164612 
	C409.348389,718.823181 409.258331,722.486023 409.269989,726.146973 
	C409.290833,732.712524 409.298218,732.712524 416.697266,732.486145 
z"/>
<path fill="#000000" opacity="1.000000" stroke="none" 
	d="
M323.865417,706.990356 
	C326.700470,707.481201 330.913483,705.671082 330.821075,709.359192 
	C330.722076,713.309998 326.467957,711.515442 323.921326,711.728760 
	C322.284424,711.865906 320.609589,711.572632 318.953278,711.451538 
	C316.171112,711.248230 315.107483,712.563354 315.107056,715.302612 
	C315.106628,718.026794 315.664185,719.867188 318.927612,719.701050 
	C321.247437,719.582886 323.580902,719.665161 325.905823,719.737061 
	C327.410797,719.783569 329.121521,719.815186 329.043610,721.979004 
	C328.968781,724.058105 327.274078,724.113892 325.775543,724.169861 
	C323.451324,724.256653 321.119995,724.325012 318.797424,724.241089 
	C315.481903,724.121399 315.093201,726.143494 315.061066,728.770935 
	C315.027863,731.487183 316.087067,732.762939 318.875244,732.692017 
	C322.196228,732.607544 325.521545,732.677185 328.844757,732.706787 
	C330.088684,732.717834 331.230713,733.031616 331.357819,734.523926 
	C331.497406,736.162903 330.566040,737.051331 328.998688,737.070496 
	C323.682404,737.135437 318.364746,737.167053 313.048492,737.118225 
	C310.689056,737.096558 309.982697,735.465393 309.974152,733.409424 
	C309.943146,725.930969 309.950989,718.452271 309.905273,710.973938 
	C309.888458,708.228821 311.354553,707.056824 313.917175,707.020813 
	C317.074219,706.976440 320.232147,706.998413 323.865417,706.990356 
z"/>
<path fill="#000000" opacity="1.000000" stroke="none" 
	d="
M570.309509,707.742615 
	C570.425781,716.308838 570.465881,724.442627 570.554199,732.575989 
	C570.588013,735.686890 570.204163,738.274170 566.132141,736.266357 
	C564.899353,735.658508 563.943848,736.022522 562.822083,736.327148 
	C556.956970,737.919739 552.791443,736.749329 549.981689,732.788025 
	C546.926636,728.480896 546.938477,722.470703 550.010193,718.326965 
	C552.886292,714.447083 557.415894,713.202820 562.922729,714.766174 
	C563.531433,714.939026 564.159424,715.043884 564.796570,715.184265 
	C566.270813,713.072327 565.450500,710.849548 565.711487,708.783508 
	C566.184204,705.041565 567.554565,704.151978 570.309509,707.742615 
M557.276489,732.331543 
	C561.456482,733.481079 564.106873,731.484558 565.342163,727.802856 
	C566.591370,724.080078 565.191772,720.847656 561.773804,718.960022 
	C558.922363,717.385193 556.178406,718.370483 554.367065,720.908020 
	C551.962219,724.277039 552.311279,727.721985 555.031250,730.855713 
	C555.450073,731.338257 556.081848,731.635986 557.276489,732.331543 
z"/>
<path fill="#000000" opacity="1.000000" stroke="none" 
	d="
M602.745483,729.020386 
	C602.351562,725.989563 600.098083,725.486511 598.108032,724.699890 
	C595.793518,723.784912 593.298035,723.194580 591.172913,721.960693 
	C586.394775,719.186157 585.877380,712.983032 589.894470,709.212341 
	C593.405884,705.916321 602.734436,705.838989 606.289551,709.026733 
	C607.277954,709.912842 607.742981,710.877686 607.130615,712.088623 
	C606.412292,713.509277 605.149170,713.904053 603.766907,713.227478 
	C601.820984,712.274963 599.970825,711.173645 597.676819,711.285950 
	C595.547852,711.390320 593.550659,711.885681 592.885010,714.116699 
	C592.125427,716.662659 594.210449,717.685120 596.004089,718.496399 
	C598.117065,719.452148 600.397278,720.030212 602.564941,720.874817 
	C606.785400,722.519226 609.080566,725.555969 608.373535,730.164185 
	C607.697083,734.573120 604.520142,736.610474 600.392395,737.186707 
	C596.331787,737.753540 592.395935,737.123901 588.878357,734.904907 
	C587.518860,734.047363 585.783020,732.990540 586.924194,730.955627 
	C588.049805,728.948425 589.601990,729.831604 591.217224,730.576782 
	C595.245605,732.435059 599.468323,735.184387 602.745483,729.020386 
z"/>
<path fill="#000000" opacity="1.000000" stroke="none" 
	d="
M379.414917,727.362976 
	C374.343475,727.044800 370.191071,727.264282 370.968353,733.870972 
	C371.147491,735.393311 370.429199,736.935852 368.497437,736.965637 
	C366.583557,736.995117 365.929382,735.587830 365.920471,733.968140 
	C365.876617,726.013000 365.883759,718.057434 365.921722,710.102234 
	C365.932648,707.809692 367.368958,706.895813 369.490662,706.892029 
	C372.307007,706.887024 375.149200,706.697449 377.934631,707.003174 
	C384.513184,707.725342 387.875916,710.885925 388.307373,716.363220 
	C388.759369,722.101379 386.381775,725.161560 379.414917,727.362976 
M381.031189,721.878052 
	C383.559082,719.614258 384.727844,716.997742 382.349762,714.042053 
	C379.816650,710.893799 375.912689,710.392334 372.797516,711.863037 
	C369.323792,713.502991 370.871643,717.592285 371.320404,720.439392 
	C371.936707,724.349121 375.538330,722.434998 377.925812,722.728760 
	C378.705688,722.824646 379.543884,722.446716 381.031189,721.878052 
z"/>
<path fill="#000000" opacity="1.000000" stroke="none" 
	d="
M672.512817,733.351562 
	C668.019409,725.385498 669.717285,717.937439 676.416809,714.800964 
	C682.610046,711.901428 690.309570,716.026550 691.257751,722.692139 
	C691.718567,725.931763 690.751160,727.878174 687.174377,727.865967 
	C683.556030,727.853638 679.937500,727.863281 676.091492,727.863281 
	C677.686218,732.659546 680.083435,733.674866 684.593140,731.970642 
	C686.410461,731.283936 688.665588,729.593872 689.632446,732.328796 
	C690.461243,734.672913 687.853882,735.570740 686.061829,736.291382 
	C681.098938,738.287292 676.632141,737.388245 672.512817,733.351562 
M677.404297,723.573181 
	C680.039612,723.358582 682.902161,724.493347 685.533325,722.240967 
	C684.268494,719.161377 682.268005,717.449097 679.098877,718.729919 
	C677.374695,719.426819 674.317261,720.296509 677.404297,723.573181 
z"/>
<path fill="#000000" opacity="1.000000" stroke="none" 
	d="
M511.305298,736.173279 
	C509.330841,736.596008 507.717041,737.187866 506.101288,737.193237 
	C501.685089,737.207825 498.429230,734.390991 498.092255,730.555359 
	C497.770416,726.892456 500.771484,723.614441 505.045166,722.744751 
	C507.409363,722.263550 510.010590,723.456055 512.465454,721.652710 
	C510.916656,717.634094 507.909058,717.811096 504.825348,718.935913 
	C502.920502,719.630676 501.038300,720.325073 500.313232,717.943359 
	C499.547821,715.429138 501.985168,715.132935 503.632904,714.564636 
	C512.005371,711.677673 517.904602,715.681580 518.171509,724.419739 
	C518.232361,726.411011 518.187317,728.405640 518.179688,730.398743 
	C518.153748,737.162537 518.151855,737.162537 511.305298,736.173279 
M508.732330,726.544678 
	C508.089996,726.688110 507.443726,726.815918 506.806152,726.977905 
	C504.978943,727.442505 503.091339,728.014709 503.508362,730.440491 
	C503.857910,732.474121 505.587677,732.817871 507.330017,732.732849 
	C509.756775,732.614502 512.095642,731.990295 512.610657,729.242493 
	C513.027771,727.016846 511.293060,726.536011 508.732330,726.544678 
z"/>
<path fill="#000000" opacity="1.000000" stroke="none" 
	d="
M443.471008,727.410217 
	C441.839355,727.494385 440.452209,727.220520 439.463928,728.369812 
	C441.705841,732.987244 443.853851,733.780884 449.040131,731.777771 
	C450.631470,731.163208 452.353973,730.079224 453.361359,732.126709 
	C454.397797,734.233154 452.259644,734.975952 450.924225,735.755798 
	C446.232544,738.495850 439.744629,737.304810 436.406403,733.204224 
	C432.687561,728.636108 432.763702,721.942993 436.584259,717.578369 
	C440.164978,713.487549 445.549988,712.572510 450.113708,715.331848 
	C450.956879,715.841675 451.845490,716.425964 452.426147,717.193115 
	C454.375488,719.768616 456.187500,722.773376 455.003418,725.917358 
	C453.897705,728.853210 450.570892,727.053406 448.284058,727.562805 
	C446.877380,727.876099 445.313995,727.485840 443.471008,727.410217 
M439.531219,722.175964 
	C442.740051,724.663940 446.009308,723.703186 449.445343,722.748657 
	C447.153931,716.989563 443.837585,716.718872 439.531219,722.175964 
z"/>
<path fill="#000000" opacity="1.000000" stroke="none" 
	d="
M618.901001,738.064819 
	C619.521729,733.320618 616.533142,730.037109 615.088074,726.229614 
	C614.143860,723.741882 612.848694,721.387878 611.890015,718.904724 
	C611.343506,717.489014 609.785156,715.627991 611.950195,714.535034 
	C614.279297,713.359253 615.659241,715.092957 616.524719,717.082275 
	C618.234375,721.012085 619.885376,724.967529 622.088318,730.155090 
	C623.937866,725.193359 625.322754,721.378174 626.786621,717.593506 
	C627.514282,715.712219 628.407166,713.348572 630.891785,714.209045 
	C633.778442,715.208679 632.104309,717.597168 631.473511,719.288574 
	C629.029968,725.841248 626.430847,732.336060 623.873596,738.846130 
	C622.175476,743.169250 619.066467,745.079773 614.426270,744.230652 
	C612.855042,743.943115 611.446167,743.350281 611.734009,741.349060 
	C611.967468,739.726074 613.013855,739.091858 614.606995,739.419983 
	C616.161621,739.740112 617.597168,739.674988 618.901001,738.064819 
z"/>
<path fill="#000000" opacity="1.000000" stroke="none" 
	d="
M529.385132,721.722656 
	C527.561890,725.738831 528.626953,729.631470 528.284424,733.409607 
	C528.147278,734.921814 528.183289,736.625183 526.103333,736.691895 
	C524.055237,736.757568 523.752319,735.175110 523.743896,733.590637 
	C523.714844,728.098511 523.715576,722.606140 523.737610,717.114014 
	C523.744263,715.443298 524.648743,713.487854 526.214478,714.281311 
	C529.233948,715.811462 531.652527,713.965759 534.334717,713.844604 
	C538.135864,713.672974 541.332581,715.139832 542.850403,718.743164 
	C544.987488,723.816528 544.139893,729.223145 543.905457,734.519714 
	C543.849426,735.786499 543.011169,736.705994 541.640259,736.744507 
	C539.998413,736.790771 539.176758,735.718079 539.108643,734.247498 
	C538.962708,731.092224 538.963562,727.929565 538.935547,724.769653 
	C538.911682,722.084167 538.193726,719.777100 535.434143,718.747192 
	C532.678650,717.718750 531.090210,719.531616 529.385132,721.722656 
z"/>
<path fill="#000000" opacity="1.000000" stroke="none" 
	d="
M634.714844,733.864624 
	C635.151978,731.093506 636.584900,730.796692 638.701477,731.668152 
	C639.903503,732.163086 641.214478,732.474731 642.505920,732.647400 
	C643.690430,732.805786 644.962463,732.545471 645.381653,731.225830 
	C645.838684,729.786865 644.689331,729.129150 643.623047,728.630554 
	C642.120728,727.928040 640.556152,727.360291 639.039917,726.685974 
	C635.977112,725.323669 634.223938,723.052185 634.853210,719.610718 
	C635.459961,716.292542 637.767578,714.460754 641.004517,713.932617 
	C642.282898,713.723938 643.763062,713.652466 644.929688,714.098450 
	C647.037354,714.904297 650.875427,714.576904 650.228455,717.969482 
	C649.525757,721.654236 646.513306,719.089355 644.482666,718.872681 
	C643.012207,718.715759 641.244629,717.992065 640.600403,719.874939 
	C639.955933,721.758728 641.693604,722.375610 643.071716,722.974121 
	C644.137024,723.436829 645.211548,723.881775 646.298157,724.291504 
	C649.632935,725.548828 651.645691,727.843323 651.065979,731.497009 
	C650.452820,735.361328 647.601685,737.011902 643.947876,737.225098 
	C640.554565,737.423035 637.341187,736.775757 634.714844,733.864624 
z"/>
<path fill="#000000" opacity="1.000000" stroke="none" 
	d="
M661.307190,727.591187 
	C661.216248,730.658813 661.794556,732.724854 665.121216,732.406799 
	C666.385681,732.285950 667.609497,732.497437 667.796387,733.949280 
	C667.999084,735.525085 666.790588,736.280090 665.504395,736.817505 
	C661.626953,738.437683 657.437439,736.222046 656.841736,732.055542 
	C656.538330,729.933350 656.554016,727.731567 656.706177,725.585693 
	C656.961792,721.982300 656.771912,718.660767 652.793945,716.912354 
	C654.033386,714.248291 655.981140,712.440491 656.563232,709.717468 
	C657.031555,707.526550 660.296143,707.163391 660.595703,708.991699 
	C661.254517,713.011963 663.689880,713.678040 666.775879,714.651733 
	C668.259705,715.119995 668.523499,717.998657 666.758118,718.017151 
	C659.455750,718.093872 661.624207,723.267456 661.307190,727.591187 
z"/>
</svg>